<svg xmlns="http://www.w3.org/2000/svg" xmlns:xlink="http://www.w3.org/1999/xlink" viewBox="0,0,256,256" width="512px" height="512px" fill-rule="nonzero"><g fill="#b4befe" fill-rule="nonzero" stroke="none" stroke-width="1" stroke-linecap="butt" stroke-linejoin="miter" stroke-miterlimit="10" stroke-dasharray="" stroke-dashoffset="0" font-family="none" font-weight="none" font-size="none" text-anchor="none" style="mix-blend-mode: normal"><g transform="scale(8,8)"><path d="M5,25c0.552,0 1,-0.447 1,-1c0,-0.553 -0.448,-1 -1,-1h-3v-14h3c0.552,0 1,-0.447 1,-1c0,-0.553 -0.448,-1 -1,-1h-4c-0.552,0 -1,0.447 -1,1v16c0,0.553 0.448,1 1,1z"></path><path d="M31,7h-4c-0.552,0 -1,0.447 -1,1c0,0.553 0.448,1 1,1h3v14h-3c-0.552,0 -1,0.447 -1,1c0,0.553 0.448,1 1,1h4c0.552,0 1,-0.447 1,-1v-16c0,-0.553 -0.448,-1 -1,-1z"></path><path d="M16,27c6.065,0 11,-4.935 11,-11c0,-6.065 -4.935,-11 -11,-11c-6.065,0 -11,4.935 -11,11c0,6.065 4.935,11 11,11zM16,7c4.962,0 9,4.037 9,9c0,4.963 -4.038,9 -9,9c-4.962,0 -9,-4.037 -9,-9c0,-4.963 4.038,-9 9,-9z"></path><path d="M16,22c2.236,0 4.331,-1.136 5.898,-3.197c0.167,-0.22 0.125,-0.534 -0.095,-0.701c-0.22,-0.167 -0.534,-0.123 -0.701,0.096c-1.373,1.807 -3.185,2.802 -5.102,2.802c-1.917,0 -3.729,-0.995 -5.102,-2.803c-0.167,-0.219 -0.479,-0.263 -0.701,-0.096c-0.22,0.167 -0.262,0.481 -0.095,0.701c1.567,2.062 3.662,3.198 5.898,3.198z"></path><path d="M13,16c1.103,0 2,-0.897 2,-2c0,-1.103 -0.897,-2 -2,-2c-1.103,0 -2,0.897 -2,2c0,1.103 0.897,2 2,2zM13,13c0.551,0 1,0.448 1,1c0,0.552 -0.449,1 -1,1c-0.551,0 -1,-0.448 -1,-1c0,-0.552 0.449,-1 1,-1z"></path><path d="M19,16c1.103,0 2,-0.897 2,-2c0,-1.103 -0.897,-2 -2,-2c-1.103,0 -2,0.897 -2,2c0,1.103 0.897,2 2,2zM19,13c0.551,0 1,0.448 1,1c0,0.552 -0.449,1 -1,1c-0.551,0 -1,-0.448 -1,-1c0,-0.552 0.449,-1 1,-1z"></path></g></g></svg>