<svg xmlns="http://www.w3.org/2000/svg" xmlns:xlink="http://www.w3.org/1999/xlink" viewBox="0,0,256,256" width="144px" height="144px" fill-rule="nonzero"><g fill="none" fill-rule="nonzero" stroke="none" stroke-width="none" stroke-linecap="none" stroke-linejoin="none" stroke-miterlimit="none" stroke-dasharray="" stroke-dashoffset="0" font-family="none" font-weight="none" font-size="none" text-anchor="none" style="mix-blend-mode: normal"><g transform="scale(5.33333,5.33333)"><path d="M5.6,28.6l-0.2,-0.2c-0.8,-0.8 -1.4,-2.2 -1.4,-3.2c0,-6 -0.3,-8.2 -1,-11.4c-0.2,-0.7 0.2,-1.3 0.5,-1.6c0.4,-0.2 0.8,-0.2 1.2,0c0.8,0.5 1.2,1.1 1.5,1.8c0.3,0.9 1.4,1.2 2.2,0.7v0c0.6,-0.3 0.8,-1 0.6,-1.7c-0.5,-1.2 -1.2,-2.4 -2.7,-3.3c-1.5,-0.9 -3.1,-0.9 -4.4,0c-1.4,1 -2.1,2.9 -1.7,4.7c0.7,3.1 1,5.1 0.9,10.8c0,1.7 1,4.1 2.2,5.3l0.3,0.3c0.8,0.9 2.5,0.2 2.4,-1.2v0c0,-0.4 -0.1,-0.8 -0.4,-1z" fill="#b4befe" stroke="none" stroke-width="1" stroke-linecap="butt" stroke-linejoin="miter" stroke-miterlimit="10"></path><path d="M15.2,15.7c0.6,0.5 1.4,0.4 2,-0.1l8.2,-8.2c0.4,-0.4 1,-0.4 1.4,0c0.4,0.4 0.4,1 0,1.4l-7.4,7.4c-0.6,0.6 -0.6,1.5 0,2.1c0.6,0.6 1.5,0.6 2.1,0l1.1,-1.1l6.3,-6.3l2.1,-2.2c0.4,-0.4 1,-0.4 1.4,0c0.4,0.4 1.1,0.4 1.5,0.2c0.9,-0.4 1.4,-1.6 0.6,-2.3v0c-1.4,-1.4 -3.5,-1.5 -5,-0.5c-0.2,-0.3 -0.4,-0.6 -0.6,-0.9c-1.6,-1.6 -4.1,-1.6 -5.7,0l-8.2,8.2c-0.6,0.7 -0.6,1.7 0.2,2.3z" fill="#b4befe" stroke="none" stroke-width="1" stroke-linecap="butt" stroke-linejoin="miter" stroke-miterlimit="10"></path><path d="M27.4,24.2l9.5,-9.5c1,-1 2.6,-1 3.5,0v0c1,1 1,2.6 0,3.5l-9.5,9.5" fill="none" stroke="#b4befe" stroke-width="3" stroke-linecap="round" stroke-linejoin="round" stroke-miterlimit="5"></path><path d="M39.1,19.6c1,-1 2.6,-1 3.5,0v0c1,1 1,2.6 0,3.5l-8.8,8.9" fill="none" stroke="#b4befe" stroke-width="3" stroke-linecap="round" stroke-linejoin="round" stroke-miterlimit="5"></path><path d="M11.3,36.4c-1,-1 -1.7,-2.9 -1.7,-4.2c0,-5.9 -0.3,-7.9 -1,-11.1c-0.5,-2.3 1.7,-4.5 3.9,-3.1c3.9,2.4 1.7,7.2 4.3,9.8l14.5,-14.5c1,-1 2.6,-1 3.5,0v0c1,1 1,2.6 0,3.5l-6.7,6.7" fill="none" stroke="#b4befe" stroke-width="3" stroke-linecap="round" stroke-linejoin="round" stroke-miterlimit="5"></path><path d="M35.9,36.9l-6.1,6.1c-3.3,3.3 -8.6,3.3 -11.9,0l-3.1,-3.1" fill="none" stroke="#b4befe" stroke-width="3" stroke-linecap="round" stroke-linejoin="round" stroke-miterlimit="5"></path><path d="M41.2,24.6c1,-1 2.6,-1 3.5,0v0c1,1 1,2.6 0,3.5l-4.8,4.9" fill="none" stroke="#b4befe" stroke-width="3" stroke-linecap="round" stroke-linejoin="round" stroke-miterlimit="5"></path></g></g></svg>