<svg xmlns="http://www.w3.org/2000/svg" xmlns:xlink="http://www.w3.org/1999/xlink" viewBox="0,0,256,256" width="144px" height="144px" fill-rule="nonzero"><g fill="none" fill-rule="nonzero" stroke="#ffffff" stroke-width="3" stroke-linecap="round" stroke-linejoin="round" stroke-miterlimit="10" stroke-dasharray="" stroke-dashoffset="0" font-family="none" font-weight="none" font-size="none" text-anchor="none" style="mix-blend-mode: normal"><g transform="scale(5.33333,5.33333)"><path d="M31.5,41.3c-2.2,0.8 -4.8,1.2 -7.5,1.2c-8,0 -14.5,-3.8 -14.5,-8.5v-0.5c0,-1.7 1.3,-3 3,-3h2.5"></path><path d="M19.6,30.5h15.9c1.7,0 3,1.3 3,3v0.5c0,1.6 -0.8,3.2 -2.2,4.5"></path><path d="M31.5,12.5h2.8c1.8,0 3.2,1.4 3.2,3.2v2.5c0,1.8 -1.4,3.2 -3.2,3.2h-2.8"></path><path d="M16.5,12.5h-2.8c-1.8,0 -3.2,1.4 -3.2,3.2v2.5c0,1.8 1.4,3.2 3.2,3.2h2.8"></path><path d="M31.2,12.5c0.8,1.3 1.3,2.8 1.3,4.5c0,4.7 -3.8,8.5 -8.5,8.5c-4.7,0 -8.5,-3.8 -8.5,-8.5c0,-4.7 3.8,-8.5 8.5,-8.5c1,0 2,0.2 2.9,0.5"></path><path d="M37.5,16c0,-7.5 -6,-13.5 -13.5,-13.5v0c-7.5,0 -13.5,6 -13.5,13.5"></path></g></g></svg>