<svg xmlns="http://www.w3.org/2000/svg" xmlns:xlink="http://www.w3.org/1999/xlink" viewBox="0,0,256,256" width="144px" height="144px" fill-rule="nonzero"><g fill="none" fill-rule="nonzero" stroke="none" stroke-width="none" stroke-linecap="none" stroke-linejoin="none" stroke-miterlimit="10" stroke-dasharray="" stroke-dashoffset="0" font-family="none" font-weight="none" font-size="none" text-anchor="none" style="mix-blend-mode: normal"><g transform="scale(5.33333,5.33333)"><path d="M17.2,16.3c1.7,-1.7 4.1,-2.7 6.7,-2.7c2.6,0 4.9,1 6.7,2.7" fill="none" stroke="#b4befe" stroke-width="3" stroke-linecap="round" stroke-linejoin="miter"></path><path d="M33.1,10.7c0.6,0.4 1.2,0.9 1.7,1.5" fill="none" stroke="#b4befe" stroke-width="3" stroke-linecap="round" stroke-linejoin="miter"></path><path d="M12.9,12.1c2.8,-2.8 6.7,-4.5 10.9,-4.5c1.4,0 2.7,0.2 3.9,0.5" fill="none" stroke="#b4befe" stroke-width="3" stroke-linecap="round" stroke-linejoin="miter"></path><path d="M20.4,23.5h14.1c5.5,0 10,4.5 10,10v0c0,5.5 -4.5,10 -10,10" fill="none" stroke="#b4befe" stroke-width="3" stroke-linecap="round" stroke-linejoin="round"></path><path d="M26.9,43.5h-13.4c-5.5,0 -10,-4.5 -10,-10v0c0,-5.5 4.5,-10 10,-10h1" fill="none" stroke="#b4befe" stroke-width="3" stroke-linecap="round" stroke-linejoin="round"></path><path d="M34.5,23.5v20" fill="none" stroke="#b4befe" stroke-width="3" stroke-linecap="round" stroke-linejoin="round"></path><path d="M14.5,23.5v20" fill="none" stroke="#b4befe" stroke-width="3" stroke-linecap="round" stroke-linejoin="round"></path><path d="M14.5,30.5h-4.5" fill="none" stroke="#b4befe" stroke-width="3" stroke-linecap="round" stroke-linejoin="round"></path><path d="M13.5,36.5h-9" fill="none" stroke="#b4befe" stroke-width="3" stroke-linecap="round" stroke-linejoin="round"></path><path d="M43.5,30.5h-8" fill="none" stroke="#b4befe" stroke-width="3" stroke-linecap="round" stroke-linejoin="round"></path><path d="M38.5,36.5h-4" fill="none" stroke="#b4befe" stroke-width="3" stroke-linecap="round" stroke-linejoin="round"></path><path d="M29.1,28.6l-3.7,-1.5c-0.1,-0.1 -0.2,-0.1 -0.4,-0.1v0v0c-0.1,0 -0.2,0 -0.3,0.1c0,0 0,0 -0.1,0c0,0 -0.1,0 -0.1,0.1l-0.1,0.1v0c-0.1,0.1 -0.1,0.2 -0.2,0.3c0,0 0,0 0,0.1c0,0.1 -0.1,0.2 -0.1,0.3v3v3.4c-0.6,-0.3 -1.3,-0.4 -2,-0.4c-2.2,0 -4,1.3 -4,3c0,1.7 1.8,3 4,3c2.2,0 4,-1.3 4,-3v-4.5l3.6,1.5c0.1,0 0.2,0.1 0.4,0.1c0.2,0 0.4,-0.1 0.6,-0.2c0.3,-0.2 0.4,-0.5 0.4,-0.8v-1.6c-0.1,-1.4 -0.8,-2.5 -2,-2.9z" fill="#b4befe" stroke="none" stroke-width="1" stroke-linecap="butt" stroke-linejoin="miter"></path></g></g></svg>